<svg width="1712" height="1713" xmlns="http://www.w3.org/2000/svg" xmlns:xlink="http://www.w3.org/1999/xlink" xml:space="preserve" overflow="hidden"><g transform="translate(-1212 -210)"><path d="M1197.48 73.3688 1021.33 16.8751 1197.48 73.3688ZM852.5 1706C1323.32 1706 1705 1324.1 1705 853 1705 529.12 1524.6 247.399 1258.85 102.953L1197.48 73.3688C1197.51 93.6816 1197.54 113.994 1197.57 134.307 1198.49 191.267 1199.74 365.779 1202.95 415.126 1203.96 422.589 1204.47 423.098 1216.84 430.39 1289.51 473.299 1344.91 566.241 1365.57 679.704 1374.04 726.684 1377.43 799.952 1373.53 850.324 1357.1 1056.22 1262.41 1238.03 1153.14 1272.97 1141.62 1276.7 1119.43 1280.26 1110.28 1279.92 1107.23 1279.76 1100.29 1279.08 1094.7 1278.23 1060.48 1273.31 1028.97 1255.84 997.291 1224.13 923.94 1151.03 871.255 1022.47 853.976 873.898 851.605 854.733 850.927 835.399 850.927 795.882 850.927 740.931 852.621 719.9 860.244 678.857 881.25 565.563 934.951 474.826 1007.12 430.39 1017.28 424.115 1018.81 421.401 1020.16 406.307 1020.67 401.855 1021.08 242.281 1021.33 19.8854 1021.33 18.8819 1021.33 17.8787 1021.33 16.8751L939.663 4.40406C911.005 1.49197 881.926 0 852.5 0 793.647 0 736.187 5.96714 680.691 17.33L651.489 24.8432C651.509 51.5041 651.528 78.1645 651.548 104.825 651.875 463.55 652.951 426.825 662.861 448.323 671.669 467.318 679.124 478.681 707.244 515.994 721.644 534.989 736.381 555.172 740.109 560.938L746.715 571.284 746.715 647.944C746.715 720.194 745.699 751.231 736.551 969.339 735.704 991.218 732.655 1067.2 729.775 1138.09 726.895 1208.99 724.185 1269.53 723.676 1272.76 721.644 1285.65 707.922 1290.73 698.096 1282.42L693.353 1278.35C693.071 1188.75 692.789 1099.14 692.506 1009.53 691.659 740.886 691.659 740.546 688.102 735.797 677.938 721.89 656.254 721.89 646.09 735.797 642.702 740.377 642.532 743.091 642.194 785.83 642.024 810.761 641.177 865.034 640.161 906.586 639.144 948.139 637.45 1015.64 636.603 1056.68 632.707 1226.46 631.352 1273.26 629.827 1277.17 624.576 1290.9 603.062 1288.7 600.351 1274.28 599.843 1271.23 598.657 1235.95 597.641 1195.76 592.389 970.017 589.001 814.832 588.662 781.081 588.154 737.154 587.307 733.932 575.11 728.335 562.574 722.738 551.394 725.113 542.923 735.119L538.35 740.716 538.35 773.958C538.35 792.275 537.503 838.746 536.656 876.906 533.606 1002.41 531.743 1089.25 529.879 1175.4 528.863 1222.05 527.677 1264.28 527.169 1269.36 525.644 1283.95 516.158 1290.23 503.961 1284.63 494.983 1280.56 495.66 1289.89 490.917 1079.58 489.9 1033.45 488.376 966.286 487.529 930.331 486.682 894.375 485.326 836.88 484.818 802.62 483.632 742.751 483.463 739.868 480.075 734.78 470.589 720.364 448.058 720.024 437.894 733.762 434.675 738.172 434.675 744.277 434.844 1004.62 435.183 1291.41 435.522 1280.05 426.883 1284.63 421.8 1287.34 414.347 1286.83 409.942 1283.78 402.488 1278.69 403.674 1294.13 394.357 1066.86 393.341 1043.62 391.816 1006.48 390.969 984.603 382.838 788.713 380.805 725.113 380.127 654.389L379.45 572.81 401.472 542.452C445.856 481.395 460.763 454.937 471.097 419.999L474.823 407.109 468.096 92.934 446.148 102.953C180.402 247.399 0 529.12 0 853 0 1324.1 381.677 1706 852.5 1706Z"  fill="#ff5400" fill-rule="evenodd" transform="matrix(1 0 0 -1 1215.5 1919.5)"/></g></svg>